<svg id="Layer_1" enable-background="new 0 0 512.001 512.001" height="512" viewBox="0 0 512.001 512.001" width="512" xmlns="http://www.w3.org/2000/svg"><g><path d="m104.433 434.068c-42.19-42.19-43.346-109.439 9.732-162.517l-13.164-13.551-40.335 40.551c-53.079 53.078-51.924 120.327-9.733 162.517 39.036 39.036 99.522 42.937 150.39 1.261-35.69 8.055-71.006-2.376-96.89-28.261z" fill="#c6e1f2"/><path d="m124.216 512.001c-32.708.001-63.596-12.96-87.427-36.79-24.953-24.954-37.987-57.649-36.703-92.064 1.327-35.543 17.384-69.686 46.436-98.738l52.308-52.521c7.794-7.827 20.457-7.853 28.284-.058 7.826 7.794 7.853 20.458.058 28.284l-52.336 52.551c-42.411 42.411-46.413 97.61-9.761 134.262 36.653 36.655 91.852 32.652 134.232-9.732l71.887-71.887c21.789-21.788 33.805-46.667 34.748-71.945.865-23.17-8.019-45.291-25.015-62.287-5.695-5.694-11.996-10.526-18.729-14.361-9.598-5.467-12.947-17.68-7.48-27.277 5.468-9.598 17.681-12.946 27.277-7.48 9.838 5.604 18.995 12.614 27.217 20.835 24.953 24.953 37.987 57.648 36.703 92.063-1.327 35.543-17.384 69.687-46.436 98.738l-71.887 71.887c-29.053 29.052-63.195 45.108-98.738 46.436-1.548.055-3.097.084-4.638.084z" fill="#0023c4"/><path d="m239.886 332.67c-3.355 0-6.756-.846-9.88-2.625-9.839-5.604-18.996-12.614-27.217-20.834-24.953-24.954-37.987-57.65-36.703-92.065 1.327-35.542 17.384-69.686 46.436-98.737l71.888-71.886c29.052-29.052 63.194-45.109 98.737-46.436 34.398-1.283 67.11 11.75 92.064 36.704 24.953 24.953 37.987 57.649 36.703 92.064-1.327 35.542-17.384 69.686-46.436 98.737l-52.308 52.522c-7.795 7.824-20.458 7.853-28.284.058-7.826-7.794-7.853-20.458-.058-28.284l52.336-52.551c42.411-42.411 46.413-97.61 9.761-134.262-36.651-36.651-91.85-32.648-134.232 9.732l-71.887 71.886c-42.383 42.382-46.385 97.581-9.732 134.234 5.693 5.693 11.995 10.525 18.729 14.36 9.598 5.467 12.947 17.68 7.48 27.277-3.687 6.474-10.443 10.106-17.397 10.106z" fill="#ff5cf3"/></g></svg>