<svg id="Layer_1" enable-background="new 0 0 512 512" height="512" viewBox="0 0 512 512" width="512" xmlns="http://www.w3.org/2000/svg"><g><path d="m243.026 491.64c-124.304-6.736-223.026-109.655-223.026-235.64 0-130.339 105.661-236 236-236 10.163 0 20.175.643 30 1.89-116.174 14.738-206 113.934-206 234.11 0 106.151 70.089 195.919 166.51 225.586-1.159 3.352-2.318 6.704-3.484 10.054zm168.974-191.64c0-19.304 9.954-36.274 25-46.088-8.629-5.629-18.929-8.912-30-8.912-30.375 0-55 24.624-55 55 0 30.375 24.625 55 55 55 11.071 0 21.371-3.283 30-8.912-15.046-9.814-25-26.784-25-46.088z" fill="#c6e1f2"/><path d="m338.011 210.002c-9.756 0-18.296-7.147-19.761-17.086-3.976-26.974-10.3-54.103-19.335-82.937-3.303-10.54 2.564-21.762 13.105-25.065 10.542-3.303 21.762 2.564 25.065 13.105 9.669 30.858 16.453 59.991 20.737 89.063 1.611 10.928-5.942 21.092-16.87 22.703-.988.147-1.971.217-2.941.217zm-52.011 25.998h-96.447c2.723-50.578 15.099-95.419 24.688-126.02 3.303-10.54-2.564-21.762-13.105-25.065-10.54-3.303-21.762 2.564-25.065 13.105-10.398 33.182-23.851 82.092-26.571 137.98h-49.5c-11.046 0-20 8.954-20 20s8.954 20 20 20h49.497c2.703 55.894 16.074 104.784 26.408 137.95 2.669 8.565 10.566 14.056 19.089 14.056 1.971 0 3.975-.294 5.956-.911 10.546-3.286 16.431-14.499 13.145-25.044-9.534-30.597-21.84-75.438-24.546-126.05h96.451c11.046 0 20-8.954 20-20s-8.954-20.001-20-20.001zm202.824-23.722c-10.646 2.941-21.663-3.305-24.604-13.951-25.759-93.221-111.382-158.327-208.22-158.327-119.103 0-216 96.897-216 216 0 117.156 91.657 211.98 208.666 215.878 11.04.368 19.691 9.615 19.323 20.655-.36 10.813-9.239 19.333-19.977 19.334-.226 0-.451-.004-.678-.012-66.551-2.217-128.766-29.815-175.184-77.712-46.527-48.007-72.15-111.273-72.15-178.143 0-68.38 26.628-132.667 74.98-181.02s112.64-74.98 181.02-74.98c57.146 0 111.205 18.418 156.331 53.263 43.697 33.74 75.817 81.475 90.444 134.411 2.942 10.646-3.304 21.662-13.951 24.604zm-81.824 12.722c-41.355 0-75 33.645-75 75s33.645 75 75 75 75-33.645 75-75-33.645-75-75-75zm0 110c-19.299 0-35-15.701-35-35s15.701-35 35-35 35 15.701 35 35-15.701 35-35 35z" fill="#0023c4"/><path d="m492 512c-11.046 0-20-8.954-20-20 0-31.981-25.927-58-57.796-58h-14.407c-31.87 0-57.797 26.019-57.797 58 0 11.046-8.954 20-20 20s-20-8.954-20-20c0-54.038 43.871-98 97.796-98h14.407c53.926 0 97.797 43.962 97.797 98 0 11.046-8.954 20-20 20z" fill="#ff5cf3"/></g></svg>